<?xml version="1.0" encoding="UTF-8"?><svg id="b" xmlns="http://www.w3.org/2000/svg" viewBox="0 0 75 600"><defs><style>.c{fill:#f2ceae;}.d{fill:#ebb382;}</style></defs><path class="c" d="M48,43l3-12,9.85-5.26c3.4-1.81,6.4-4.28,8.84-7.26l2.31-6.49h3V0H0V600H75v-12h-3l-2.31-6.49c-2.44-2.98-5.44-5.45-8.84-7.26l-9.85-5.26-3-12-11-9V52l11-9Z"/><g><rect class="d" x="5" y="67" width="5" height="466" transform="translate(15 600) rotate(180)"/><rect class="d" x="15.5" y="67" width="5" height="466" transform="translate(36 600) rotate(180)"/><rect class="d" x="26" y="67" width="5" height="466" transform="translate(57 600) rotate(180)"/></g><g><rect class="d" width="75" height="12"/><polygon class="d" points="37 52 0 52 0 43 48 43 37 52"/><path class="d" d="M70,18l-3.24,3.24c-2.49,2.49-5.37,4.57-8.52,6.14l-7.24,3.62H0v-13H70Z"/></g><g><rect class="d" y="588" width="75" height="12"/><polygon class="d" points="37 548 0 548 0 557 48 557 37 548"/><path class="d" d="M70,582l-3.24-3.24c-2.49-2.49-5.37-4.57-8.52-6.14l-7.24-3.62H0v13H70Z"/></g></svg>