<?xml version="1.0" encoding="UTF-8"?><svg xmlns="http://www.w3.org/2000/svg" viewBox="0 0 102.5 601.01"><defs><style>.c{fill:#f2ceae;}.c,.d{stroke:#401801;stroke-miterlimit:10;}.d{fill:#401801;}</style></defs><g id="a"><path class="c" d="M51.5,500c-.34,0-.67,.02-1,.03V101.97c.33,0,.66,.03,1,.03,27.89,0,50.5-22.61,50.5-50.5S79.39,1,51.5,1c-.34,0-.67,.02-1,.03V.5H.5V600.5l43.5-.5h56v-50c0-27.89-20.61-50-48.5-50Z"/></g><g id="b"><g><rect class="d" x="32.08" y="99.83" width="7" height="398"/><rect class="d" x="11.08" y="99.83" width="7" height="398"/><rect class="d" x="1.08" y="492.83" width="50" height="9"/><rect class="d" x=".58" y="99.83" width="50" height="9"/></g><polygon class="d" points="98 538 1 538 1 547 99 547 98 538"/><rect class="d" x="1" y="571" width="99" height="9"/></g></svg>